<?xml version="1.0" standalone="no"?>
<!DOCTYPE svg PUBLIC "-//W3C//DTD SVG 20010904//EN"
 "http://www.w3.org/TR/2001/REC-SVG-20010904/DTD/svg10.dtd">
<svg version="1.0" xmlns="http://www.w3.org/2000/svg"
 width="560.000000pt" height="560.000000pt" viewBox="0 0 560.000000 560.000000"
 preserveAspectRatio="xMidYMid meet">
<metadata>
Created by potrace 1.14, written by Peter Selinger 2001-2017
</metadata>
<g transform="translate(0.000000,560.000000) scale(0.100000,-0.100000)"
fill="#000000" stroke="none">
<path d="M1520 2820 c-18 -18 -20 -33 -20 -129 l0 -110 -46 20 c-179 80 -380
-27 -416 -220 -10 -51 -9 -70 6 -122 51 -185 243 -277 411 -198 l44 20 20 -20
c27 -27 65 -27 91 -1 19 19 20 33 20 380 0 347 -1 361 -20 380 -11 11 -31 20
-45 20 -14 0 -34 -9 -45 -20z m-114 -342 c100 -50 122 -177 45 -258 -70 -73
-167 -76 -237 -6 -83 83 -57 218 50 267 54 24 89 24 142 -3z"/>
<path d="M3110 2810 c-42 -42 -8 -120 51 -120 34 0 69 35 69 69 0 59 -78 93
-120 51z"/>
<path d="M2015 2621 c-88 -22 -163 -85 -203 -171 -89 -189 56 -413 266 -413
62 0 89 8 175 51 4 2 7 -3 7 -12 0 -37 69 -47 101 -15 20 20 20 29 17 187 -3
157 -5 170 -29 217 -62 118 -209 186 -334 156z m141 -140 c99 -45 128 -166 61
-254 -96 -126 -299 -57 -299 101 0 76 32 126 102 156 47 20 87 19 136 -3z"/>
<path d="M2595 2605 l-25 -24 0 -246 0 -246 25 -24 c27 -28 52 -31 81 -11 17
13 20 31 24 169 5 149 6 155 34 195 31 45 95 82 142 82 46 0 74 25 74 65 0 71
-93 84 -201 29 -27 -13 -49 -20 -49 -14 0 18 -39 50 -60 50 -12 0 -32 -11 -45
-25z"/>
<path d="M3120 2610 c-19 -19 -20 -33 -20 -279 0 -257 0 -260 22 -275 30 -21
51 -20 79 3 23 18 23 19 24 276 l0 257 -24 19 c-30 24 -56 24 -81 -1z"/>
<path d="M3440 2610 c-20 -20 -20 -31 -18 -282 l3 -262 28 -16 c24 -13 30 -13
55 0 l27 16 3 178 c2 144 6 182 19 202 30 47 99 67 145 43 39 -21 48 -67 48
-248 0 -164 1 -170 22 -185 30 -21 51 -20 79 3 23 19 24 24 26 195 1 97 7 185
12 195 13 23 70 51 106 51 16 0 38 -11 56 -29 l29 -29 0 -181 c0 -173 1 -181
22 -201 12 -11 31 -20 43 -20 12 0 31 9 43 20 21 20 22 29 22 199 0 130 -4
190 -14 219 -53 148 -201 194 -340 105 l-38 -25 -22 21 c-55 51 -141 64 -207
31 l-40 -21 -26 21 c-33 25 -58 25 -83 0z"/>
<path d="M4585 2621 c-93 -24 -182 -105 -211 -193 -20 -62 -16 -167 10 -220
74 -152 249 -216 399 -144 220 106 222 424 2 531 -57 29 -147 40 -200 26z
m145 -143 c63 -32 90 -77 90 -148 0 -69 -26 -114 -85 -147 -78 -44 -177 -17
-223 62 -29 50 -27 140 4 183 25 34 98 72 139 72 17 0 51 -10 75 -22z"/>
</g>
</svg>
